<?xml version="1.0" encoding="utf-8"?>
<!-- Generator: Adobe Illustrator 24.1.1, SVG Export Plug-In . SVG Version: 6.00 Build 0)  -->
<svg version="1.1" id="Layer_1" xmlns="http://www.w3.org/2000/svg" xmlns:xlink="http://www.w3.org/1999/xlink" x="0px" y="0px"
	 viewBox="0 0 200 120" style="enable-background:new 0 0 200 120;" xml:space="preserve">
<style type="text/css">
	.st0{display:none;fill:#B7B7B7;}
	.st1{fill:none;stroke:#000000;stroke-width:2;stroke-linecap:round;stroke-linejoin:round;stroke-miterlimit:10;}
	.st2{fill:none;stroke:#000000;stroke-width:2;stroke-linecap:round;stroke-linejoin:round;}
	.st3{fill:none;stroke:#FFFFFF;stroke-width:2;stroke-linecap:round;stroke-linejoin:round;stroke-miterlimit:10;}
	.st4{fill:none;stroke:#FFFFFF;stroke-width:2;stroke-linecap:round;stroke-linejoin:round;}
	.st5{fill:#ED1B23;stroke:#ED1B23;stroke-width:2;stroke-linecap:round;stroke-linejoin:round;}
	.st6{fill:none;stroke:#000000;stroke-width:2;}
	.st7{fill-rule:evenodd;clip-rule:evenodd;}
	.st8{fill:none;stroke:#FFFFFF;stroke-width:2;}
	.st9{fill-rule:evenodd;clip-rule:evenodd;fill:#FFFFFF;}
	.st10{fill:none;stroke:#000000;stroke-width:1.5;stroke-linecap:round;stroke-linejoin:round;}
</style>
<rect class="st0" width="40" height="40"/>
<rect y="40" class="st0" width="40" height="40"/>
<g>
	<path class="st1" d="M15.5,15.7v-1c0-2.2,1.8-4.5,4.1-4.7c2.7-0.3,4.9,1.8,4.9,4.5v1.4"/>
	<path class="st1" d="M17,30h6c4,0,4.7-1.6,5-3.6l0.8-6C29,18,28.3,16,24,16h-8c-4.3,0-5,2-4.7,4.4l0.8,6C12.3,28.4,13,30,17,30z"/>
	<path class="st2" d="M23.5,20L23.5,20"/>
	<path class="st2" d="M16.5,20L16.5,20"/>
</g>
<g>
	<path class="st3" d="M15.5,55.7v-1c0-2.2,1.8-4.5,4.1-4.7c2.7-0.3,4.9,1.8,4.9,4.5v1.4"/>
	<path class="st3" d="M17,70h6c4,0,4.7-1.6,5-3.6l0.8-6C29,58,28.3,56,24,56h-8c-4.3,0-5,2-4.7,4.4l0.8,6C12.3,68.4,13,70,17,70z"/>
	<path class="st4" d="M23.5,60L23.5,60"/>
	<path class="st4" d="M16.5,60L16.5,60"/>
</g>
<rect x="40" class="st0" width="40" height="40"/>
<rect x="40" y="40" class="st0" width="40" height="40"/>
<rect x="40" y="80" class="st0" width="40" height="40"/>
<path class="st2" d="M60.6,28.9c-0.3,0.1-0.9,0.1-1.2,0c-2.9-1-9.4-5.2-9.4-12.3c0-3.1,2.5-5.7,5.6-5.7c1.8,0,3.4,0.9,4.4,2.3
	c1-1.4,2.6-2.3,4.4-2.3c3.1,0,5.6,2.5,5.6,5.7C70,23.7,63.5,27.9,60.6,28.9z"/>
<path class="st4" d="M60.6,68.9c-0.3,0.1-0.9,0.1-1.2,0c-2.9-1-9.4-5.2-9.4-12.3c0-3.1,2.5-5.7,5.6-5.7c1.8,0,3.4,0.9,4.4,2.3
	c1-1.4,2.6-2.3,4.4-2.3c3.1,0,5.6,2.5,5.6,5.7C70,63.7,63.5,67.9,60.6,68.9z"/>
<path class="st5" d="M60.6,108.9c-0.3,0.1-0.9,0.1-1.2,0c-2.9-1-9.4-5.2-9.4-12.3c0-3.1,2.5-5.7,5.6-5.7c1.8,0,3.4,0.9,4.4,2.3
	c1-1.4,2.6-2.3,4.4-2.3c3.1,0,5.6,2.5,5.6,5.7C70,103.7,63.5,107.9,60.6,108.9z"/>
<rect x="80" class="st0" width="40" height="40"/>
<rect x="80" y="40" class="st0" width="40" height="40"/>
<g>
	<path class="st2" d="M106.1,29.6c-0.9,0.3-1.9,0.4-3.1,0.4h-6c-1.2,0-2.3-0.1-3.1-0.4C94.1,27,96.8,25,100,25S105.9,27,106.1,29.6z
		"/>
	<path class="st2" d="M103,10h-6c-5,0-7,2-7,7v6c0,3.8,1.1,5.8,3.9,6.6C94.1,27,96.8,25,100,25s5.9,2,6.1,4.6
		c2.7-0.8,3.9-2.8,3.9-6.6v-6C110,12,108,10,103,10z M100,22.2c-2,0-3.6-1.6-3.6-3.6S98,15,100,15s3.6,1.6,3.6,3.6
		S102,22.2,100,22.2z"/>
</g>
<g>
	<path class="st4" d="M106.1,69.6c-0.9,0.3-1.9,0.4-3.1,0.4h-6c-1.2,0-2.3-0.1-3.1-0.4C94.1,67,96.8,65,100,65S105.9,67,106.1,69.6z
		"/>
	<path class="st4" d="M103,50h-6c-5,0-7,2-7,7v6c0,3.8,1.1,5.8,3.9,6.6C94.1,67,96.8,65,100,65s5.9,2,6.1,4.7
		c2.7-0.8,3.9-2.8,3.9-6.6v-6C110,52,108,50,103,50z M100,62.2c-2,0-3.6-1.6-3.6-3.6c0-2,1.6-3.6,3.6-3.6s3.6,1.6,3.6,3.6
		C103.6,60.6,102,62.2,100,62.2z"/>
</g>
<rect x="120" class="st0" width="40" height="40"/>
<rect x="120" y="40" class="st0" width="40" height="40"/>
<g>
	<path class="st6" d="M143,15.5V14c0-2.2-1.8-4-4-4h-5c-2.2,0-4,1.8-4,4v7c0,2.2,1.8,4,4,4h2.5"/>
	<path class="st6" d="M141,15h5c2.2,0,4,1.8,4,4v7c0,2.2-1.8,4-4,4h-5c-2.2,0-4-1.8-4-4v-7C137,16.8,138.8,15,141,15z"/>
	<path class="st7" d="M144.5,20c0-0.6-0.4-1-1-1s-1,0.4-1,1v1.5H141c-0.6,0-1,0.4-1,1s0.4,1,1,1h1.5V25c0,0.6,0.4,1,1,1s1-0.4,1-1
		v-1.5h1.5c0.6,0,1-0.4,1-1s-0.4-1-1-1h-1.5V20z"/>
</g>
<g>
	<path class="st8" d="M143,55.5V54c0-2.2-1.8-4-4-4h-5c-2.2,0-4,1.8-4,4v7c0,2.2,1.8,4,4,4h2.5"/>
	<path class="st8" d="M141,55h5c2.2,0,4,1.8,4,4v7c0,2.2-1.8,4-4,4h-5c-2.2,0-4-1.8-4-4v-7C137,56.8,138.8,55,141,55z"/>
	<path class="st9" d="M144.5,60c0-0.6-0.4-1-1-1s-1,0.4-1,1v1.5H141c-0.6,0-1,0.4-1,1s0.4,1,1,1h1.5V65c0,0.6,0.4,1,1,1s1-0.4,1-1
		v-1.5h1.5c0.6,0,1-0.4,1-1s-0.4-1-1-1h-1.5V60z"/>
</g>
<rect x="160" class="st0" width="40" height="40"/>
<rect x="160" y="40" class="st0" width="40" height="40"/>
<g>
	<path class="st10" d="M175.5,18.5V17c0-2.5,0.8-4.5,4.5-4.5s4.5,2,4.5,4.5v1.5"/>
	<path class="st10" d="M180,24.9c1,0,1.9-0.8,1.9-1.9s-0.8-1.9-1.9-1.9s-1.9,0.8-1.9,1.9S179,24.9,180,24.9z"/>
	<path class="st10" d="M183.8,27.5h-7.5c-3,0-3.8-0.8-3.8-3.8v-1.5c0-3,0.8-3.8,3.8-3.8h7.5c3,0,3.8,0.8,3.8,3.8v1.5
		C187.5,26.8,186.8,27.5,183.8,27.5z"/>
</g>
<g>
	<path class="st10" d="M175.5,58.5V57c0-2.5,0.8-4.5,4.5-4.5c2.3,0,3.4,0.7,4,1.9"/>
	<path class="st10" d="M180,64.9c1,0,1.9-0.8,1.9-1.9s-0.8-1.9-1.9-1.9s-1.9,0.8-1.9,1.9S179,64.9,180,64.9z"/>
	<path class="st10" d="M183.8,67.5h-7.5c-3,0-3.8-0.8-3.8-3.8v-1.5c0-3,0.8-3.8,3.8-3.8h7.5c3,0,3.8,0.8,3.8,3.8v1.5
		C187.5,66.8,186.8,67.5,183.8,67.5z"/>
</g>
</svg>
